<?xml version="1.0" standalone="no"?>
<!DOCTYPE svg PUBLIC "-//W3C//DTD SVG 20010904//EN"
 "http://www.w3.org/TR/2001/REC-SVG-20010904/DTD/svg10.dtd">
<svg version="1.0" xmlns="http://www.w3.org/2000/svg"
 width="135.000000pt" height="135.000000pt" viewBox="0 0 135.000000 135.000000"
 preserveAspectRatio="xMidYMid meet">
<metadata>
Created by potrace 1.14, written by Peter Selinger 2001-2017
</metadata>
<g transform="translate(0.000000,135.000000) scale(0.100000,-0.100000)"
fill="#000000" stroke="none">
<path d="M1275 1323 c-33 -7 -71 -15 -85 -17 -14 -3 -38 -8 -55 -11 -16 -4
-35 -8 -41 -8 -6 0 -21 -28 -34 -61 -12 -34 -28 -74 -35 -91 -7 -16 -18 -46
-25 -65 -7 -19 -17 -39 -21 -43 -4 -5 -83 -11 -175 -13 -93 -2 -266 -7 -384
-10 -118 -3 -256 -6 -307 -7 -50 -1 -95 -6 -100 -10 -9 -9 -11 -127 -3 -127 5
0 12 -59 14 -117 1 -17 4 -29 7 -27 4 2 7 -6 7 -19 0 -25 10 -119 12 -127 1
-3 2 -14 1 -25 -2 -41 21 -54 110 -60 46 -3 92 -8 102 -11 9 -3 66 -7 125 -10
59 -2 123 -6 142 -9 19 -3 75 -7 124 -10 49 -3 98 -11 110 -17 30 -16 95 -67
134 -105 28 -28 31 -36 22 -53 -6 -11 -16 -20 -23 -21 -7 0 -24 -2 -39 -4 -15
-2 -30 1 -34 6 -4 6 -11 6 -19 -1 -9 -8 -15 -8 -20 0 -4 7 -13 7 -27 -1 -16
-9 -23 -8 -29 2 -5 8 -9 10 -9 4 0 -6 -114 -10 -323 -9 -177 0 -332 -3 -344
-7 -29 -11 -30 -43 -1 -63 15 -10 26 -12 39 -6 22 12 31 -9 12 -28 -15 -16
-18 -72 -3 -72 6 0 10 -5 10 -11 0 -21 26 -36 59 -34 60 3 92 71 56 122 -14
19 -13 21 10 25 14 3 25 2 25 -1 0 -3 20 -6 45 -6 25 0 45 2 45 5 0 3 47 5
105 5 58 0 105 -4 105 -8 0 -5 5 -5 11 -1 18 11 79 12 85 2 3 -5 12 -4 19 2 9
8 15 8 20 0 3 -6 13 -7 23 -2 9 4 40 7 67 6 83 -3 80 -2 62 -22 -42 -46 3
-138 61 -127 35 6 72 49 72 84 0 16 -10 37 -25 51 -24 23 -35 47 -16 35 5 -3
21 9 35 27 47 63 18 140 -81 207 l-50 34 23 54 c13 29 24 56 25 61 0 4 9 27
20 51 10 24 19 47 19 51 0 4 11 32 24 61 13 30 25 59 26 64 3 11 8 26 40 105
12 30 23 60 25 65 1 6 8 24 14 40 7 17 14 35 15 40 1 6 12 33 25 60 13 28 24
55 25 60 11 43 22 49 111 60 17 2 30 4 30 5 0 3 48 10 67 11 13 0 16 9 14 40
-2 22 -5 41 -7 42 -2 2 -31 -3 -64 -10z m-634 -378 c0 -5 1 -35 2 -65 l2 -55
-67 -3 -66 -3 1 63 2 63 34 2 c19 2 35 4 37 6 7 7 54 0 55 -8z m161 -9 c2 -12
1 -42 0 -68 l-4 -48 -63 0 c-41 0 -64 4 -67 13 -8 24 -1 109 9 115 6 4 36 7
67 8 49 1 55 -1 58 -20z m143 6 c-4 -9 -16 -41 -27 -70 -19 -52 -21 -53 -56
-50 l-37 3 0 60 c0 33 1 63 2 66 2 4 30 7 64 8 54 0 60 -1 54 -17z m-623 -1
c4 -1 6 -28 6 -61 l-1 -60 -64 0 c-49 0 -63 3 -64 15 -6 106 -3 110 62 108 30
-1 57 -2 61 -2z m158 0 c3 0 6 -27 5 -58 l0 -58 -65 0 -65 0 -1 45 c-3 75 -1
77 64 75 31 -1 59 -3 62 -4z m-309 -32 c1 -16 1 -38 1 -49 0 -11 0 -25 -1 -31
-1 -6 -20 -9 -48 -7 -40 3 -48 6 -49 24 -1 11 -4 36 -8 55 l-6 34 55 2 c54 2
55 1 56 -28z m-6 -118 c9 -1 12 -54 6 -107 0 -7 -19 -12 -41 -12 -34 -1 -40 2
-41 21 0 12 -2 36 -5 52 -6 51 0 54 81 46z m157 0 c4 -1 6 -28 5 -60 -1 -53
-4 -60 -24 -64 -13 -2 -23 -1 -23 2 0 3 -18 5 -40 5 -22 -1 -40 1 -41 5 -5 45
-2 96 7 106 9 8 70 12 116 6z m135 0 l32 -1 -2 -57 -3 -58 -64 0 -64 0 -1 60
-1 60 36 -2 c19 -1 49 -2 67 -2z m176 -4 c10 -4 13 -40 8 -104 -1 -8 -18 -12
-48 -12 -79 1 -83 3 -81 62 1 29 6 55 10 58 9 6 93 3 111 -4z m164 -1 c5 -5 7
-55 4 -97 -1 -13 -14 -16 -66 -16 -36 0 -68 4 -71 8 -3 5 -1 9 3 9 5 0 8 22 6
49 -3 45 -2 50 19 53 30 5 98 1 105 -6z m77 -34 c-8 -15 -19 -40 -24 -56 -14
-40 -25 -25 -25 37 0 55 14 73 47 56 15 -8 16 -12 2 -37z m-705 -121 c8 -12 6
-32 -4 -68 -3 -8 -13 -9 -32 -4 -21 6 -28 14 -30 36 -1 15 -4 33 -6 39 -6 16
62 13 72 -3z m156 -36 c0 -50 0 -50 -30 -47 -99 10 -97 9 -99 44 -4 44 8 53
71 53 l58 0 0 -50z m122 46 l41 -1 -1 -52 c-2 -47 -4 -53 -22 -51 -11 2 -40 4
-65 6 -45 2 -45 2 -47 42 -2 55 3 66 29 61 13 -3 42 -5 65 -5z m192 -16 c4
-11 6 -31 5 -45 -4 -62 0 -59 -56 -54 -75 6 -75 7 -75 63 0 56 2 57 76 56 35
0 45 -5 50 -20z m161 -10 c3 -17 -1 -47 -9 -68 -14 -37 -14 -37 -68 -35 -57 3
-54 -1 -55 73 -1 64 -3 62 64 61 61 -2 63 -2 68 -31z m-592 -513 c-2 -14 -12
-31 -23 -38 -17 -11 -24 -10 -44 5 -29 22 -23 62 11 78 30 14 60 -11 56 -45z
m717 40 c31 -23 35 -39 15 -64 -24 -31 -63 -27 -79 8 -9 20 -7 28 9 44 21 21
38 25 55 12z"/>
<path d="M150 109 c-8 -15 -7 -21 4 -25 19 -7 36 3 36 21 0 22 -29 26 -40 4z"/>
<path d="M885 112 c-3 -8 -1 -20 4 -25 14 -14 43 0 39 20 -4 21 -35 25 -43 5z"/>
</g>
</svg>
