<?xml version="1.0" standalone="no"?>
<!DOCTYPE svg PUBLIC "-//W3C//DTD SVG 20010904//EN"
 "http://www.w3.org/TR/2001/REC-SVG-20010904/DTD/svg10.dtd">
<svg version="1.0" xmlns="http://www.w3.org/2000/svg"
 width="640.000000pt" height="640.000000pt" viewBox="0 0 640.000000 640.000000"
 preserveAspectRatio="xMidYMid meet">
<metadata>
Created by potrace 1.14, written by Peter Selinger 2001-2017
</metadata>
<g transform="translate(0.000000,640.000000) scale(0.100000,-0.100000)"
fill="#000000" stroke="none">
<path d="M6180 6257 c-3 -2 -25 -7 -50 -11 -59 -8 -104 -15 -165 -26 -50 -10
-598 -103 -710 -121 -80 -13 -140 -43 -164 -82 -11 -18 -90 -212 -175 -432
-86 -220 -160 -409 -165 -420 -5 -11 -17 -42 -27 -70 -10 -27 -24 -61 -31 -75
-7 -14 -13 -30 -13 -35 0 -13 -60 -157 -69 -167 -3 -3 -136 -9 -296 -12 -159
-4 -353 -9 -430 -11 -77 -2 -250 -7 -385 -10 -135 -3 -324 -7 -420 -10 -96 -3
-269 -7 -385 -10 -115 -3 -300 -7 -410 -10 -110 -3 -292 -7 -405 -10 -113 -3
-297 -8 -410 -10 -113 -3 -286 -7 -385 -10 -99 -2 -290 -7 -425 -10 -401 -10
-510 -14 -533 -21 -39 -11 -87 -54 -108 -96 -22 -43 -22 -85 0 -248 6 -41 13
-100 16 -130 4 -30 8 -66 10 -80 2 -14 6 -52 10 -85 3 -33 8 -67 10 -75 2 -8
6 -44 10 -80 4 -36 8 -76 10 -90 2 -14 10 -86 19 -160 9 -74 18 -151 20 -170
3 -19 12 -96 21 -170 9 -74 18 -146 20 -160 2 -14 6 -52 10 -85 3 -33 8 -71
10 -85 4 -27 12 -90 19 -155 45 -378 43 -363 63 -408 18 -42 92 -97 132 -98
14 0 33 -2 42 -4 9 -1 61 -6 115 -10 54 -3 113 -8 129 -10 17 -2 75 -7 130
-10 55 -4 106 -8 115 -10 8 -1 69 -6 134 -10 66 -4 127 -8 137 -10 9 -2 59 -6
110 -10 52 -3 107 -8 124 -10 16 -2 73 -6 125 -10 52 -3 119 -8 148 -10 28 -3
76 -7 105 -10 28 -2 88 -7 132 -10 44 -3 103 -8 130 -10 28 -3 88 -7 135 -11
47 -3 101 -7 120 -9 19 -2 73 -6 120 -10 47 -3 103 -8 125 -10 22 -2 81 -7
130 -10 50 -3 108 -8 130 -10 22 -2 76 -6 120 -10 44 -3 98 -8 120 -10 22 -2
83 -7 135 -10 52 -4 111 -8 130 -10 19 -3 78 -7 130 -11 109 -7 98 -1 282
-146 68 -54 211 -166 318 -251 156 -123 201 -164 227 -207 75 -123 46 -240
-68 -270 -37 -10 -1036 -17 -3064 -20 -484 -1 -892 -4 -907 -7 -37 -7 -110
-73 -125 -112 -20 -54 -10 -127 24 -169 57 -70 77 -76 255 -76 87 -1 158 -1
158 -1 0 0 -26 -28 -58 -62 -48 -50 -63 -74 -82 -133 -43 -135 -11 -270 90
-370 27 -28 76 -63 108 -78 49 -23 70 -27 147 -27 82 0 97 3 157 33 75 37 143
105 177 176 65 138 31 309 -82 417 l-50 48 839 1 c461 0 1157 2 1546 4 l708 2
-55 -48 c-205 -183 -147 -507 111 -612 82 -33 195 -31 276 6 99 46 182 141
213 245 20 71 5 183 -37 266 -37 75 -166 175 -228 177 -8 1 12 15 46 33 85 45
132 82 184 144 85 102 121 192 121 301 -1 113 -22 194 -81 299 -56 101 -139
180 -406 389 l-232 181 114 294 c63 162 119 303 124 314 5 11 66 166 136 345
217 558 237 611 736 1885 115 294 167 426 224 573 47 120 55 134 76 138 64 10
101 16 148 24 30 5 69 12 85 14 17 3 111 19 210 36 99 17 205 36 235 41 30 5
64 11 75 13 11 2 42 7 69 10 87 12 142 50 171 119 46 111 -30 233 -153 244
-26 3 -49 3 -52 0z m-1734 -1810 c-17 -45 -75 -191 -126 -324 l-95 -243 -167
0 -168 0 0 320 0 320 58 0 c141 1 507 12 511 16 2 2 7 1 12 -1 4 -3 -7 -42
-25 -88z m-685 63 c1 -3 2 -146 3 -318 l1 -312 -307 0 -308 0 0 310 0 310 33
0 c93 2 492 12 494 14 5 4 83 1 84 -4z m-740 -41 c0 -16 0 -144 0 -284 0 -140
0 -266 0 -280 l-1 -25 -305 0 -305 0 0 300 c0 165 1 300 3 301 1 0 103 3 227
6 124 3 226 6 227 7 1 0 35 2 77 2 l76 2 1 -29z m-741 -289 l0 -300 -307 0
-308 0 0 283 c0 155 3 287 7 292 3 6 82 11 190 13 100 2 184 4 185 5 1 1 54 3
117 4 l116 2 0 -299z m-741 -10 l1 -290 -308 0 -309 0 1 283 1 282 160 3 c88
1 174 3 190 5 17 1 83 3 147 5 l117 2 0 -290z m-743 -10 l0 -280 -226 2 -225
3 -7 55 c-4 30 -9 78 -13 105 -8 72 -15 129 -26 215 -5 41 -11 96 -14 122 l-6
47 88 3 c48 2 165 4 258 6 l171 3 0 -281z m-6 -410 c3 0 6 -128 6 -285 l0
-285 -183 0 c-139 0 -183 3 -184 13 0 6 -2 21 -4 32 -2 11 -7 49 -10 85 -3 36
-8 76 -10 90 -3 14 -7 48 -10 75 -3 28 -8 61 -10 75 -3 14 -7 52 -10 85 -4 33
-8 72 -11 87 -3 19 1 27 13 30 12 2 381 1 413 -2z m728 0 l22 0 -1 -285 0
-285 -308 0 -308 0 0 285 1 284 40 3 c32 2 426 1 554 -2z m720 1 l42 -1 0
-285 0 -285 -308 0 -307 0 0 283 0 282 35 5 c28 4 246 4 538 1z m777 -1 c9 0
10 -94 6 -517 l-1 -53 -305 0 -304 0 -3 276 c-2 152 -1 280 2 284 3 5 19 10
35 12 22 2 499 1 570 -2z m725 0 l25 0 0 -282 -1 -283 -307 -3 -307 -2 0 284
0 285 23 3 c17 2 388 1 567 -2z m427 -3 c4 -5 -15 -54 -155 -412 -57 -147 -59
-150 -90 -153 l-32 -3 0 285 0 285 33 3 c44 4 238 0 244 -5z m-3372 -899 l0
-203 -35 1 c-44 1 -265 15 -266 17 -1 1 -5 27 -8 57 -13 114 -17 147 -26 210
-5 36 -10 77 -10 93 l0 27 173 0 173 0 -1 -202z m743 -30 l-3 -233 -35 1 c-50
2 -277 19 -450 35 -58 5 -110 9 -116 9 -7 0 -11 65 -10 210 l0 210 308 0 308
0 -2 -232z m742 -33 l0 -264 -37 4 c-40 3 -162 13 -253 20 -71 5 -218 17 -250
20 -14 2 -36 3 -50 4 l-25 1 1 232 c1 128 2 236 3 241 0 4 138 7 306 7 l305 0
0 -265z m740 253 c1 -24 1 -543 1 -560 -1 -12 -8 -16 -23 -13 -13 2 -68 6
-123 10 -55 3 -113 8 -130 10 -16 2 -68 6 -115 10 -47 3 -115 8 -152 12 l-68
6 0 268 0 269 305 0 c237 0 305 -3 305 -12z m742 0 c2 -7 3 -87 2 -178 l-1
-165 -56 -140 c-49 -125 -58 -140 -79 -139 -12 0 -61 3 -108 7 -47 4 -116 10
-155 13 -38 3 -86 7 -105 9 -19 2 -52 4 -72 4 l-38 1 0 300 0 300 304 0 c234
0 305 -3 308 -12z m-2904 -2334 c189 -78 168 -357 -30 -404 -200 -49 -347 185
-216 344 57 69 163 95 246 60z m3487 -4 c82 -39 115 -87 123 -175 4 -52 1 -72
-17 -109 -65 -134 -241 -165 -346 -61 -106 107 -71 290 69 351 45 19 124 17
171 -6z"/>
<path d="M722 603 c-37 -18 -62 -58 -62 -100 0 -34 31 -88 59 -103 53 -28 137
-3 160 47 27 59 5 130 -50 159 -36 18 -66 18 -107 -3z"/>
<path d="M4199 603 c-34 -21 -59 -63 -59 -100 0 -34 31 -88 61 -103 54 -29
138 -1 160 53 25 60 9 115 -44 147 -39 24 -83 25 -118 3z"/>
</g>
</svg>
